<svg width="50" height="50" viewBox="0 0 50 50" fill="none" xmlns="http://www.w3.org/2000/svg">
<g filter="url(#filter0_ii_186_1932)">
<rect width="50" height="50" rx="12.5" fill="#00005B"/>
</g>
<g filter="url(#filter1_dii_186_1932)">
<path d="M20.4119 27.5715H14.3863V23.4062H20.4119C21.301 23.4062 22.0144 23.2581 22.5522 22.9617C23.101 22.6654 23.5016 22.2593 23.754 21.7434C24.0174 21.2166 24.1491 20.6239 24.1491 19.9654C24.1491 19.2849 24.0174 18.6538 23.754 18.0721C23.5016 17.4794 23.101 17.002 22.5522 16.6398C22.0144 16.2776 21.301 16.0965 20.4119 16.0965H16.329V35.902H10.9619V11.9312H20.4119C22.3217 11.9312 23.9571 12.277 25.3181 12.9684C26.69 13.6599 27.7382 14.6093 28.4626 15.8166C29.1979 17.0129 29.5656 18.3849 29.5656 19.9324C29.5656 21.48 29.1979 22.8245 28.4626 23.966C27.7382 25.1075 26.69 25.9965 25.3181 26.6331C23.9571 27.2587 22.3217 27.5715 20.4119 27.5715ZM37.0407 22.2373V35.902H31.9041V18.0885H36.7279L37.0407 22.2373ZM42.3584 17.9568L42.276 22.7477C42.0565 22.7148 41.7712 22.6873 41.4199 22.6654C41.0687 22.6325 40.7669 22.616 40.5145 22.616C39.8559 22.616 39.2852 22.6983 38.8023 22.8629C38.3303 23.0166 37.9352 23.2471 37.6169 23.5544C37.3096 23.8617 37.0791 24.2459 36.9254 24.7068C36.7718 25.1568 36.6949 25.6782 36.6949 26.2709L35.7236 25.7934C35.7236 24.619 35.8388 23.5434 36.0693 22.5666C36.2998 21.5898 36.6346 20.7446 37.0736 20.0312C37.5126 19.3068 38.0504 18.7471 38.687 18.352C39.3236 17.9568 40.048 17.7593 40.8602 17.7593C41.1236 17.7593 41.3925 17.7757 41.6669 17.8087C41.9413 17.8416 42.1718 17.891 42.3584 17.9568Z" fill="#9999F8"/>
</g>
<defs>
<filter id="filter0_ii_186_1932" x="0" y="-3.28947" width="50" height="56.5789" filterUnits="userSpaceOnUse" color-interpolation-filters="sRGB">
<feFlood flood-opacity="0" result="BackgroundImageFix"/>
<feBlend mode="normal" in="SourceGraphic" in2="BackgroundImageFix" result="shape"/>
<feColorMatrix in="SourceAlpha" type="matrix" values="0 0 0 0 0 0 0 0 0 0 0 0 0 0 0 0 0 0 127 0" result="hardAlpha"/>
<feOffset dy="3.28947"/>
<feGaussianBlur stdDeviation="2.46711"/>
<feComposite in2="hardAlpha" operator="arithmetic" k2="-1" k3="1"/>
<feColorMatrix type="matrix" values="0 0 0 0 0.960784 0 0 0 0 0.968627 0 0 0 0 1 0 0 0 0.4 0"/>
<feBlend mode="normal" in2="shape" result="effect1_innerShadow_186_1932"/>
<feColorMatrix in="SourceAlpha" type="matrix" values="0 0 0 0 0 0 0 0 0 0 0 0 0 0 0 0 0 0 127 0" result="hardAlpha"/>
<feOffset dy="-3.28947"/>
<feGaussianBlur stdDeviation="2.46711"/>
<feComposite in2="hardAlpha" operator="arithmetic" k2="-1" k3="1"/>
<feColorMatrix type="matrix" values="0 0 0 0 0 0 0 0 0 0 0 0 0 0 0 0 0 0 0.45 0"/>
<feBlend mode="normal" in2="effect1_innerShadow_186_1932" result="effect2_innerShadow_186_1932"/>
</filter>
<filter id="filter1_dii_186_1932" x="7.67244" y="10.6154" width="37.9754" height="30.5497" filterUnits="userSpaceOnUse" color-interpolation-filters="sRGB">
<feFlood flood-opacity="0" result="BackgroundImageFix"/>
<feColorMatrix in="SourceAlpha" type="matrix" values="0 0 0 0 0 0 0 0 0 0 0 0 0 0 0 0 0 0 127 0" result="hardAlpha"/>
<feOffset dy="1.97368"/>
<feGaussianBlur stdDeviation="1.64474"/>
<feComposite in2="hardAlpha" operator="out"/>
<feColorMatrix type="matrix" values="0 0 0 0 0 0 0 0 0 0 0 0 0 0 0 0 0 0 0.48 0"/>
<feBlend mode="normal" in2="BackgroundImageFix" result="effect1_dropShadow_186_1932"/>
<feBlend mode="normal" in="SourceGraphic" in2="effect1_dropShadow_186_1932" result="shape"/>
<feColorMatrix in="SourceAlpha" type="matrix" values="0 0 0 0 0 0 0 0 0 0 0 0 0 0 0 0 0 0 127 0" result="hardAlpha"/>
<feOffset dy="-0.657895"/>
<feGaussianBlur stdDeviation="0.657895"/>
<feComposite in2="hardAlpha" operator="arithmetic" k2="-1" k3="1"/>
<feColorMatrix type="matrix" values="0 0 0 0 0 0 0 0 0 0 0 0 0 0 0 0 0 0 0.35 0"/>
<feBlend mode="normal" in2="shape" result="effect2_innerShadow_186_1932"/>
<feColorMatrix in="SourceAlpha" type="matrix" values="0 0 0 0 0 0 0 0 0 0 0 0 0 0 0 0 0 0 127 0" result="hardAlpha"/>
<feOffset dy="0.657895"/>
<feGaussianBlur stdDeviation="0.657895"/>
<feComposite in2="hardAlpha" operator="arithmetic" k2="-1" k3="1"/>
<feColorMatrix type="matrix" values="0 0 0 0 1 0 0 0 0 1 0 0 0 0 1 0 0 0 0.35 0"/>
<feBlend mode="normal" in2="effect2_innerShadow_186_1932" result="effect3_innerShadow_186_1932"/>
</filter>
</defs>
</svg>
